<?xml version="1.0" encoding="UTF-8" standalone="no"?>
<!-- Created with Inkscape (http://www.inkscape.org/) -->

<svg
   xmlns:dc="http://purl.org/dc/elements/1.1/"
   xmlns:cc="http://creativecommons.org/ns#"
   xmlns:rdf="http://www.w3.org/1999/02/22-rdf-syntax-ns#"
   xmlns:svg="http://www.w3.org/2000/svg"
   xmlns="http://www.w3.org/2000/svg"
   xmlns:sodipodi="http://sodipodi.sourceforge.net/DTD/sodipodi-0.dtd"
   xmlns:inkscape="http://www.inkscape.org/namespaces/inkscape"
   width="210mm"
   height="297mm"
   viewBox="0 0 210 297"
   version="1.1"
   id="svg4140"
   inkscape:version="0.92.4 (5da689c313, 2019-01-14)"
   sodipodi:docname="icones.original.svg">
  <defs
     id="defs4134" />
  <sodipodi:namedview
     id="base"
     pagecolor="#ffffff"
     bordercolor="#666666"
     borderopacity="1.0"
     inkscape:pageopacity="0.0"
     inkscape:pageshadow="2"
     inkscape:zoom="1"
     inkscape:cx="412.12388"
     inkscape:cy="287.27361"
     inkscape:document-units="mm"
     inkscape:current-layer="layer6"
     showgrid="false"
     showguides="true"
     inkscape:guide-bbox="true"
     inkscape:window-width="1366"
     inkscape:window-height="705"
     inkscape:window-x="-8"
     inkscape:window-y="-8"
     inkscape:window-maximized="1"
     inkscape:pagecheckerboard="true" />
  <metadata
     id="metadata4137">
    <rdf:RDF>
      <cc:Work
         rdf:about="">
        <dc:format>image/svg+xml</dc:format>
        <dc:type
           rdf:resource="http://purl.org/dc/dcmitype/StillImage" />
        <dc:title></dc:title>
      </cc:Work>
    </rdf:RDF>
  </metadata>
  <g
     inkscape:groupmode="layer"
     id="layer4"
     inkscape:label="FACEBOOK"
     style="display:inline;opacity:1">
    <path
       style="fill:#ffffff;fill-opacity:1;stroke:none;stroke-width:0.26458332"
       d="m 56.756847,217.16185 c 0.04433,-4.27186 0,0 0.04433,-4.27186 -0.522334,-2.73792 1.724847,-7.29199 6.402344,-7.66319 h 5.706177 v 5.44482 l -3.819773,-0.0436 c -1.917485,0.11317 -2.040755,1.33632 -2.147757,2.19396 v 4.33983 h 5.749737 l -0.679697,5.92397 h -5.07004 v 14.98418 h -6.098202 l -0.08712,-14.98418 -5.009239,0.0436 v -5.96753 z"
       id="rect4697"
       inkscape:connector-curvature="0"
       sodipodi:nodetypes="ccccccccccccccccc"
       inkscape:export-xdpi="22.655462"
       inkscape:export-ydpi="22.655462" />
  </g>
  <g
     inkscape:groupmode="layer"
     id="layer5"
     inkscape:label="instagram"
     style="opacity:1">
    <g
       id="g4744"
       style="fill:#ffffff"
       inkscape:export-xdpi="22.655462"
       inkscape:export-ydpi="22.655462">
      <path
         inkscape:connector-curvature="0"
         id="rect4728"
         transform="scale(0.26458333)"
         d="M 359.69141,763.13477 C 335.88318,765.8307 319.85409,778.03263 318.1543,807.75 v 58.76953 c 2.10459,34.02792 21.17961,40.75565 41.8457,44.92383 h 64.92383 c 26.39157,-3.57872 41.89204,-17.05795 41.23047,-45.23047 v -59.07812 c -1.10759,-20.78057 -6.60999,-39.41759 -40.92383,-44 z m 0,12.92382 h 66.46289 c 21.94639,2.46153 27.38476,16.45461 27.38476,30.76953 v 59.69141 c -0.0227,24.0175 -12.79144,28.91489 -27.38476,31.07617 h -66.46289 c -17.43851,-0.61213 -27.8854,-9.96154 -28.92188,-31.07617 v -59.69141 c 2.13459,-20.44214 13.22777,-29.84589 28.92188,-30.76953 z"
         style="fill:#ffffff;fill-opacity:1;stroke:none;stroke-width:0.99999994" />
      <path
         inkscape:connector-curvature="0"
         id="path4734"
         transform="scale(0.26458333)"
         d="m 392.38477,799.22266 a 37.85016,38.098084 0 0 0 -37.84961,38.09765 37.85016,38.098084 0 0 0 37.84961,38.09961 37.85016,38.098084 0 0 0 37.85156,-38.09961 37.85016,38.098084 0 0 0 -37.85156,-38.09765 z m 0.0625,13.05859 a 25.062055,24.957962 0 0 1 25.06054,24.95703 25.062055,24.957962 0 0 1 -25.06054,24.95899 25.062055,24.957962 0 0 1 -25.0625,-24.95899 25.062055,24.957962 0 0 1 25.0625,-24.95703 z"
         style="fill:#ffffff;fill-opacity:1;stroke:none;stroke-width:0.99999994" />
      <ellipse
         ry="2.317771"
         rx="2.3396399"
         cy="211.06754"
         cx="114.33609"
         id="path4739"
         style="fill:#ffffff;fill-opacity:1;stroke:none;stroke-width:0.26458332" />
    </g>
  </g>
  <g
     inkscape:groupmode="layer"
     id="layer6"
     inkscape:label="twitter"
     style="opacity:1">
    <path
       style="fill:#ffffff;fill-opacity:1;stroke:none;stroke-width:0.26458332"
       d="m 137.09285,206.82011 c 2.69381,2.8518 6.3815,7.45695 16.88899,8.61579 -1.56929,-8.22349 7.92795,-13.5887 14.04396,-7.46142 1.89789,-0.47284 3.73104,-1.08812 5.39226,-2.08164 -0.97895,2.70401 -2.29101,3.46486 -3.5412,4.58666 1.72076,-0.22898 3.10437,-0.74695 4.50151,-1.2533 -0.96773,1.61401 -2.26005,3.08375 -4.0828,4.31776 1.64832,11.31999 -13.00808,33.43388 -35.96572,20.66134 3.97808,0.30461 6.36648,0.28332 12.35464,-3.3684 -4.08168,-0.16615 -6.56321,-2.29739 -7.94062,-5.78457 1.93045,0.30203 2.79987,0.0746 3.82058,-0.0773 -6.0773,-1.43796 -6.62874,-6.28067 -6.67463,-8.20431 1.26427,0.66026 2.08444,0.92944 3.84679,1.09764 -3.73615,-2.64535 -4.84012,-6.69854 -2.64376,-11.04821 z"
       id="rect4747"
       inkscape:connector-curvature="0"
       sodipodi:nodetypes="ccccccccccccccc"
       inkscape:export-xdpi="22.655462"
       inkscape:export-ydpi="22.655462" />
  </g>
</svg>
